HIERARCHY
ROOT Hips
{
	OFFSET 0.000000 0.000000 0.000000
	CHANNELS 6 Xposition Yposition Zposition Zrotation Yrotation Xrotation 
	JOINT LHipJoint
	{
		OFFSET 0.000000 0.000000 0.000000
		CHANNELS 3 Zrotation Yrotation Xrotation
		JOINT LeftUpLeg
		{
			OFFSET 1.363060 -1.794630 0.839290
			CHANNELS 3 Zrotation Yrotation Xrotation
			JOINT LeftLeg
			{
				OFFSET 2.448110 -6.726130 0.000000
				CHANNELS 3 Zrotation Yrotation Xrotation
				JOINT LeftFoot
				{
					OFFSET 2.562200 -7.039590 0.000000
					CHANNELS 3 Zrotation Yrotation Xrotation
					JOINT LeftToeBase
					{
						OFFSET 0.157640 -0.433110 2.322550
						CHANNELS 3 Zrotation Yrotation Xrotation
						End Site
						{
							OFFSET 0.000000 0.000000 0.000000
						}
					}
				}
			}
		}
	}
	JOINT RHipJoint
	{
		OFFSET 0.000000 0.000000 0.000000
		CHANNELS 3 Zrotation Yrotation Xrotation
		JOINT RightUpLeg
		{
			OFFSET -1.305520 -1.794630 0.839290
			CHANNELS 3 Zrotation Yrotation Xrotation
			JOINT RightLeg
			{
				OFFSET -2.542530 -6.985550 0.000000
				CHANNELS 3 Zrotation Yrotation Xrotation
				JOINT RightFoot
				{
					OFFSET -2.568260 -7.056230 0.000000
					CHANNELS 3 Zrotation Yrotation Xrotation
					JOINT RightToeBase
					{
						OFFSET -0.164730 -0.452590 2.363150
						CHANNELS 3 Zrotation Yrotation Xrotation
						End Site
						{
							OFFSET 0.000000 0.000000 0.000000
						}
					}
				}
			}
		}
	}
	JOINT LowerBack
	{
		OFFSET 0.000000 0.000000 0.000000
		CHANNELS 3 Zrotation Yrotation Xrotation
		JOINT Spine
		{
			OFFSET 0.028270 2.035590 -0.193380
			CHANNELS 3 Zrotation Yrotation Xrotation
			JOINT Spine1
			{
				OFFSET 0.056720 2.048850 -0.042750
				CHANNELS 3 Zrotation Yrotation Xrotation
				JOINT Neck
				{
					OFFSET 0.000000 0.000000 0.000000
					CHANNELS 3 Zrotation Yrotation Xrotation
					JOINT Neck1
					{
						OFFSET -0.054170 1.746240 0.172020
						CHANNELS 3 Zrotation Yrotation Xrotation
						JOINT Head
						{
							OFFSET 0.104070 1.761360 -0.123970
							CHANNELS 3 Zrotation Yrotation Xrotation
							End Site
							{
								OFFSET 0.000000 0.000000 0.000000
							}
						}
					}
				}
				JOINT LeftShoulder
				{
					OFFSET 0.000000 0.000000 0.000000
					CHANNELS 3 Zrotation Yrotation Xrotation
					JOINT LeftArm
					{
						OFFSET 3.362410 1.200890 -0.311210
						CHANNELS 3 Zrotation Yrotation Xrotation
						JOINT LeftForeArm
						{
							OFFSET 4.983000 -0.000000 -0.000000
							CHANNELS 3 Zrotation Yrotation Xrotation
							JOINT LeftHand
							{
								OFFSET 3.483560 -0.000000 -0.000000
								CHANNELS 3 Zrotation Yrotation Xrotation
								JOINT LeftFingerBase
								{
									OFFSET 0.000000 0.000000 0.000000
									CHANNELS 3 Zrotation Yrotation Xrotation
									JOINT LeftHandIndex1
									{
										OFFSET 0.715260 -0.000000 -0.000000
										CHANNELS 3 Zrotation Yrotation Xrotation
										End Site
										{
											OFFSET 0.000000 0.000000 0.000000
										}
									}
								}
								JOINT LThumb
								{
									OFFSET 0.000000 0.000000 0.000000
									CHANNELS 3 Zrotation Yrotation Xrotation
									End Site
									{
										OFFSET 0.000000 0.000000 0.000000
									}
								}
							}
						}
					}
				}
				JOINT RightShoulder
				{
					OFFSET 0.000000 0.000000 0.000000
					CHANNELS 3 Zrotation Yrotation Xrotation
					JOINT RightArm
					{
						OFFSET -3.136600 1.374050 -0.404650
						CHANNELS 3 Zrotation Yrotation Xrotation
						JOINT RightForeArm
						{
							OFFSET -5.241900 -0.000000 -0.000000
							CHANNELS 3 Zrotation Yrotation Xrotation
							JOINT RightHand
							{
								OFFSET -3.444170 -0.000000 -0.000000
								CHANNELS 3 Zrotation Yrotation Xrotation
								JOINT RightFingerBase
								{
									OFFSET 0.000000 0.000000 0.000000
									CHANNELS 3 Zrotation Yrotation Xrotation
									JOINT RightHandIndex1
									{
										OFFSET -0.622530 -0.000000 -0.000000
										CHANNELS 3 Zrotation Yrotation Xrotation
										End Site
										{
											OFFSET 0.000000 0.000000 0.000000
										}
									}
								}
								JOINT RThumb
								{
									OFFSET 0.000000 0.000000 0.000000
									CHANNELS 3 Zrotation Yrotation Xrotation
									End Site
									{
										OFFSET 0.000000 0.000000 0.000000
									}
								}
							}
						}
					}
				}
			}
		}
	}
}
MOTION
Frames: 5
Frame Time: 0.008333
23.860362 16.259181 3.567916 152.718063 -83.956821 -121.195509 -13.829573 3.396326 -2.414365 -4.081686 9.309287 -7.227629 -0.967502 1.323715 21.082341 1.361851 5.957942 20.509051 2.150500 -0.000000 -90.055400 7.099757 0.963035 3.832950 3.299926 8.481521 -63.706439 2.532964 -1.013747 21.262110 0.172611 -0.024079 6.117985 -0.932200 -0.000000 -26.350400 11.555112 -2.796027 1.447718 1.782501 -3.254613 -2.319747 -5.755862 -3.358947 2.170431 9.612090 -4.730627 2.261432 -4.040686 -0.358905 2.292189 0.000000 0.000000 0.000000 -10.386284 -4.845458 0.257928 -74.607359 -18.610418 25.344480 -2.567128 -31.627952 -0.009513 4.992911 -1.303460 -0.064133 -0.106175 0.154662 0.000000 0.000000 0.000000 0.000000 0.000000 0.000000 0.000000 16.877083 -9.680518 -0.618169 62.521335 -12.794522 -14.024232 3.848510 16.827697 0.008477 2.659642 5.060893 0.113676 0.092217 -0.004124 -0.000000 0.000000 0.000000 0.000000 0.000000 0.000000 0.000000 
23.702155 16.247371 3.524822 158.032098 -84.095497 -126.092777 -13.844423 3.371420 -2.391072 -3.515258 9.641946 -8.213181 -0.935609 1.395721 22.441701 1.450565 6.027063 21.352321 2.196500 -0.000000 -87.187800 7.133611 0.998865 3.698112 4.326079 8.552278 -64.649341 2.578333 -1.301542 23.478602 0.275012 0.616668 5.473508 -0.720300 0.000000 -25.003399 12.213247 -2.660820 1.553969 1.895200 -3.134984 -2.315461 -5.827681 -3.246237 2.106722 9.865451 -4.150461 2.455696 -4.071436 -0.360551 2.340164 0.000000 0.000000 0.000000 -10.575155 -5.091245 0.285692 -75.060697 -18.615508 24.832249 -2.500998 -30.785443 -0.010298 5.189320 -1.333267 -0.068079 -0.101352 0.155856 0.000000 0.000000 0.000000 0.000000 0.000000 0.000000 0.000000 17.242989 -9.170614 -0.583834 61.938651 -11.765503 -13.903582 3.868326 16.044225 0.007971 2.727132 4.887495 0.112663 0.090971 -0.002026 -0.000000 0.000000 0.000000 0.000000 0.000000 0.000000 0.000000 
23.553012 16.244954 3.481244 164.812672 -84.284721 -132.499675 -13.739099 3.320121 -2.427927 -2.900215 10.042495 -9.243947 -0.918464 1.479504 23.951903 1.544987 6.207110 22.076506 2.290299 0.000000 -83.450400 7.235655 1.073793 3.557792 5.331111 8.722928 -65.310430 2.627245 -1.545264 25.413574 0.344961 1.174514 4.509017 -0.538800 0.000000 -23.635500 12.945226 -2.538108 1.760534 2.022718 -3.019445 -2.283998 -5.915629 -3.137731 2.044132 10.197425 -3.488604 2.694353 -4.102732 -0.362136 2.398014 0.000000 0.000000 0.000000 -10.629288 -5.358623 0.311651 -75.556204 -18.725621 24.204834 -2.431385 -29.825463 -0.011268 5.441496 -1.337765 -0.071629 -0.096663 0.156757 0.000000 0.000000 0.000000 0.000000 0.000000 0.000000 0.000000 17.679696 -8.601832 -0.547070 61.344789 -10.504509 -13.924530 3.885413 15.085536 0.007420 2.767573 4.679456 0.109448 0.089877 0.000128 -0.000000 0.000000 0.000000 0.000000 0.000000 0.000000 0.000000 
23.412626 16.251631 3.436397 172.697067 -84.563677 -140.068433 -13.505762 3.224136 -2.523282 -2.246060 10.472094 -10.290944 -0.900573 1.564520 25.595083 1.638245 6.532236 22.614286 2.450700 -0.000000 -78.937500 7.406336 1.149608 3.425388 6.281207 8.943291 -65.671093 2.683405 -1.747065 26.999154 0.377348 1.617528 3.317945 -0.398600 0.000000 -22.326000 13.743650 -2.457924 2.047542 2.169446 -2.935760 -2.229442 -6.015486 -3.061255 1.983995 10.609093 -2.757515 2.975959 -4.132577 -0.363588 2.465769 0.000000 0.000000 0.000000 -10.543284 -5.663175 0.340050 -76.082101 -18.934459 23.499308 -2.360813 -28.773249 -0.012385 5.735242 -1.315991 -0.074381 -0.092303 0.157531 0.000000 0.000000 0.000000 0.000000 0.000000 0.000000 0.000000 18.182395 -7.997103 -0.510392 60.749902 -9.028892 -14.106450 3.896236 13.971359 0.006854 2.751797 4.440948 0.103232 0.089062 0.002208 -0.000000 0.000000 0.000000 0.000000 0.000000 0.000000 0.000000 
23.280974 16.266831 3.389570 -179.045589 -84.964379 -148.084123 -13.190825 3.062187 -2.669023 -1.589949 10.887331 -11.330762 -0.859806 1.636449 27.341280 1.725534 7.030399 22.912000 2.691400 0.000000 -73.841800 7.605297 1.172057 3.308837 7.131325 9.144717 -65.744232 2.749135 -1.910814 28.202226 0.373647 1.933608 2.001726 -0.300401 -0.000000 -21.131300 14.542716 -2.453267 2.383753 2.327591 -2.914033 -2.159776 -6.118919 -3.046707 1.928460 11.097727 -1.969145 3.297124 -4.158570 -0.364864 2.542951 0.000000 0.000000 0.000000 -10.322128 -6.015363 0.375602 -76.620221 -19.235898 22.773072 -2.294202 -27.658818 -0.013587 6.048749 -1.267477 -0.075830 -0.088586 0.158341 0.000000 0.000000 0.000000 0.000000 0.000000 0.000000 0.000000 18.744486 -7.377459 -0.477445 60.165400 -7.375438 -14.468402 3.895720 12.742021 0.006295 2.648834 4.178539 0.093315 0.088563 0.004083 -0.000000 0.000000 0.000000 0.000000 0.000000 0.000000 0.000000 
